<?xml version="1.0" encoding="UTF-8" standalone="no"?>
<!DOCTYPE svg PUBLIC "-//W3C//DTD SVG 1.0//EN" "http://www.w3.org/TR/2001/PR-SVG-20010719/DTD/svg10.dtd">
<svg width="46cm" height="25cm" viewBox="31 -107 916 494" xmlns="http://www.w3.org/2000/svg" xmlns:xlink="http://www.w3.org/1999/xlink">
  <g>
    <ellipse style="fill: #ffffff" cx="98.7356" cy="164.368" rx="33.3678" ry="33.3678"/>
    <ellipse style="fill: none; fill-opacity:0; stroke-width: 2; stroke: #000000" cx="98.7356" cy="164.368" rx="33.3678" ry="33.3678"/>
    <polyline style="fill: none; fill-opacity:0; stroke-width: 2; stroke: #000000" points="32,164.368 65.3678,164.368 "/>
    <polygon style="fill: #000000" points="56.0248,160.364 65.3678,164.368 56.0248,167.705 "/>
    <polygon style="fill: none; fill-opacity:0; stroke-width: 2; stroke: #000000" points="56.0248,160.364 65.3678,164.368 56.0248,167.705 "/>
    <text font-size="16.9333" style="fill: #000000;text-anchor:middle;font-family:sans-serif;font-style:normal;font-weight:normal" x="98.7356" y="169.659">
      <tspan x="98.7356" y="169.659">START</tspan>
    </text>
  </g>
  <g>
    <ellipse style="fill: #0eb00e" cx="231.61" cy="164.731" rx="43.7315" ry="43.7315"/>
    <ellipse style="fill: none; fill-opacity:0; stroke-width: 2; stroke: #000000" cx="231.61" cy="164.731" rx="43.7315" ry="43.7315"/>
    <text font-size="19.7556" style="fill: #000000;text-anchor:middle;font-family:sans-serif;font-style:normal;font-weight:normal" x="231.61" y="170.905">
      <tspan x="231.61" y="170.905">EXON</tspan>
    </text>
  </g>
  <g>
    <ellipse style="fill: #1e90ff" cx="441.089" cy="343.311" rx="42.7029" ry="42.7029"/>
    <ellipse style="fill: none; fill-opacity:0; stroke-width: 2; stroke: #000000" cx="441.089" cy="343.311" rx="42.7029" ry="42.7029"/>
    <text font-size="19.7556" style="fill: #000000;text-anchor:middle;font-family:sans-serif;font-style:normal;font-weight:normal" x="441.089" y="349.485">
      <tspan x="441.089" y="349.485">1 bef</tspan>
    </text>
  </g>
  <g>
    <ellipse style="fill: #df2828" cx="665.201" cy="166.401" rx="44.6012" ry="44.6012"/>
    <ellipse style="fill: none; fill-opacity:0; stroke-width: 2; stroke: #000000" cx="665.201" cy="166.401" rx="44.6012" ry="44.6012"/>
    <text font-size="19.7556" style="fill: #000000;text-anchor:middle;font-family:sans-serif;font-style:normal;font-weight:normal" x="665.201" y="172.575">
      <tspan x="665.201" y="172.575">INTRON</tspan>
    </text>
  </g>
  <g>
    <ellipse style="fill: #ffffff" cx="797.406" cy="166.285" rx="32.5565" ry="32.5565"/>
    <ellipse style="fill: none; fill-opacity:0; stroke-width: 2; stroke: #000000" cx="797.406" cy="166.285" rx="32.5565" ry="32.5565"/>
    <text font-size="16.9333" style="fill: #000000;text-anchor:middle;font-family:sans-serif;font-style:normal;font-weight:normal" x="797.406" y="171.577">
      <tspan x="797.406" y="171.577">END</tspan>
    </text>
  </g>
  <g>
    <line style="fill: none; fill-opacity:0; stroke-width: 2; stroke: #000000" x1="132.103" y1="164.368" x2="178.143" y2="164.668"/>
    <polygon style="fill: #000000" points="185.643,164.717 175.61,169.652 178.143,164.668 175.675,159.652 "/>
    <polygon style="fill: none; fill-opacity:0; stroke-width: 2; stroke: #000000" points="185.643,164.717 175.61,169.652 178.143,164.668 175.675,159.652 "/>
  </g>
  <g>
    <line style="fill: none; fill-opacity:0; stroke-width: 2; stroke: #000000" x1="709.802" y1="166.401" x2="755.114" y2="166.305"/>
    <polygon style="fill: #000000" points="762.614,166.29 752.625,171.311 755.114,166.305 752.603,161.311 "/>
    <polygon style="fill: none; fill-opacity:0; stroke-width: 2; stroke: #000000" points="762.614,166.29 752.625,171.311 755.114,166.305 752.603,161.311 "/>
  </g>
  <text font-size="12.8" style="fill: #000000;text-anchor:start;font-family:sans-serif;font-style:normal;font-weight:normal" x="231.61" y="164.731">
    <tspan x="231.61" y="164.731"></tspan>
  </text>
  <g>
    <path style="fill: none; fill-opacity:0; stroke-width: 2; stroke: #000000" d="M 271.031,199.904 A 37.2506,37.2506 0 1 0 262.536,133.805"/>
    <polygon style="fill: #000000" points="264.392,196.905 275.482,198.328 270.619,201.085 269.908,206.63 "/>
    <polygon style="fill: none; fill-opacity:0; stroke-width: 2; stroke: #000000" points="264.392,196.905 275.482,198.328 270.619,201.085 269.908,206.63 "/>
  </g>
  <g>
    <path style="fill: none; fill-opacity:0; stroke-width: 2; stroke: #000000" d="M 624.53,200.413 A 34.42,34.42 0 1 0 665.202,211.002"/>
    <polygon style="fill: #000000" points="631.442,198.225 622.152,204.445 624.002,199.17 620.891,194.525 "/>
    <polygon style="fill: none; fill-opacity:0; stroke-width: 2; stroke: #000000" points="631.442,198.225 622.152,204.445 624.002,199.17 620.891,194.525 "/>
  </g>
  <text font-size="16.9333" style="fill: #000000;text-anchor:start;font-family:sans-serif;font-style:normal;font-weight:normal" x="144.773" y="161.525">
    <tspan x="144.773" y="161.525">1.0</tspan>
  </text>
  <text font-size="12.8" style="fill: #000000;text-anchor:start;font-family:sans-serif;font-style:normal;font-weight:normal" x="293.336" y="146.575">
    <tspan x="293.336" y="146.575"></tspan>
  </text>
  <text font-size="16.9333" style="fill: #000000;text-anchor:start;font-family:sans-serif;font-style:normal;font-weight:normal" x="723.846" y="164.062">
    <tspan x="723.846" y="164.062">0.1</tspan>
  </text>
  <text font-size="16.9333" style="fill: #000000;text-anchor:start;font-family:sans-serif;font-style:normal;font-weight:normal" x="323.858" y="167.228">
    <tspan x="323.858" y="167.228">0.9</tspan>
  </text>
  <text font-size="16.9333" style="fill: #000000;text-anchor:start;font-family:sans-serif;font-style:normal;font-weight:normal" x="570.206" y="263.592">
    <tspan x="570.206" y="263.592">0.89</tspan>
  </text>
  <line style="fill: none; fill-opacity:0; stroke-width: 2; stroke: #000000" x1="199.706" y1="34.7724" x2="199" y2="108.805"/>
  <text font-size="16.9333" style="fill: #000000;text-anchor:start;font-family:sans-serif;font-style:normal;font-weight:normal" x="206.948" y="45.9648">
    <tspan x="206.948" y="45.9648">A = 0.25</tspan>
    <tspan x="206.948" y="67.1315">C = 0.25</tspan>
    <tspan x="206.948" y="88.2981">G = 0.25</tspan>
    <tspan x="206.948" y="109.465">T = 0.25</tspan>
  </text>
  <g>
    <path style="fill: none; fill-opacity:0; stroke-width: 2; stroke: #000000" d="M 193.08,79.0428 A 48.1138,48.1138 0 0 0 194.837,136.759"/>
    <polygon style="fill: #000000" points="197.729,73.3256 193.904,83.8313 192.282,78.4816 187.029,76.5691 "/>
    <polygon style="fill: none; fill-opacity:0; stroke-width: 2; stroke: #000000" points="197.729,73.3256 193.904,83.8313 192.282,78.4816 187.029,76.5691 "/>
  </g>
  <line style="fill: none; fill-opacity:0; stroke-width: 2; stroke: #000000" x1="726" y1="228.804" x2="727.04" y2="303.544"/>
  <g>
    <path style="fill: none; fill-opacity:0; stroke-width: 2; stroke: #000000" d="M 696.744,197.943 A 53.3346,53.3346 0 0 0 717.977,261.758"/>
    <polygon style="fill: #000000" points="724.449,265.33 713.302,266.188 717.503,262.501 717.074,256.927 "/>
    <polygon style="fill: none; fill-opacity:0; stroke-width: 2; stroke: #000000" points="724.449,265.33 713.302,266.188 717.503,262.501 717.074,256.927 "/>
  </g>
  <text font-size="16.9333" style="fill: #000000;text-anchor:start;font-family:sans-serif;font-style:normal;font-weight:normal" x="735.8" y="240.9">
    <tspan x="735.8" y="240.9">A = 0.25</tspan>
    <tspan x="735.8" y="262.067">C = 0.25</tspan>
    <tspan x="735.8" y="283.233">G = 0.25</tspan>
    <tspan x="735.8" y="304.4">T = 0.25</tspan>
  </text>
  <g>
    <ellipse style="fill: #7ebdd1" cx="325.503" cy="343.603" rx="42.7029" ry="42.7029"/>
    <ellipse style="fill: none; fill-opacity:0; stroke-width: 2; stroke: #000000" cx="325.503" cy="343.603" rx="42.7029" ry="42.7029"/>
    <text font-size="19.7556" style="fill: #000000;text-anchor:middle;font-family:sans-serif;font-style:normal;font-weight:normal" x="325.503" y="349.777">
      <tspan x="325.503" y="349.777">2 bef</tspan>
    </text>
  </g>
  <g>
    <ellipse style="fill: #20657b" cx="440.503" cy="225.603" rx="42.7029" ry="42.7029"/>
    <ellipse style="fill: none; fill-opacity:0; stroke-width: 2; stroke: #000000" cx="440.503" cy="225.603" rx="42.7029" ry="42.7029"/>
    <text font-size="19.7556" style="fill: #000000;text-anchor:middle;font-family:sans-serif;font-style:normal;font-weight:normal" x="440.503" y="231.777">
      <tspan x="440.503" y="231.777">5'SS</tspan>
    </text>
  </g>
  <g>
    <ellipse style="fill: #1e90ff" cx="441.503" cy="103.853" rx="42.7029" ry="42.7029"/>
    <ellipse style="fill: none; fill-opacity:0; stroke-width: 2; stroke: #000000" cx="441.503" cy="103.853" rx="42.7029" ry="42.7029"/>
    <text font-size="19.7556" style="fill: #000000;text-anchor:middle;font-family:sans-serif;font-style:normal;font-weight:normal" x="441.503" y="110.027">
      <tspan x="441.503" y="110.027">1 aft</tspan>
    </text>
  </g>
  <g>
    <ellipse style="fill: #7ebdd1" cx="441.503" cy="-15.1471" rx="42.7029" ry="42.7029"/>
    <ellipse style="fill: none; fill-opacity:0; stroke-width: 2; stroke: #000000" cx="441.503" cy="-15.1471" rx="42.7029" ry="42.7029"/>
    <text font-size="19.7556" style="fill: #000000;text-anchor:middle;font-family:sans-serif;font-style:normal;font-weight:normal" x="441.503" y="-8.97346">
      <tspan x="441.503" y="-8.97346">2 aft</tspan>
    </text>
  </g>
  <g>
    <ellipse style="fill: #cae8f2" cx="562.503" cy="-15.1471" rx="42.7029" ry="42.7029"/>
    <ellipse style="fill: none; fill-opacity:0; stroke-width: 2; stroke: #000000" cx="562.503" cy="-15.1471" rx="42.7029" ry="42.7029"/>
    <text font-size="19.7556" style="fill: #000000;text-anchor:middle;font-family:sans-serif;font-style:normal;font-weight:normal" x="562.503" y="-8.97346">
      <tspan x="562.503" y="-8.97346">3 aft</tspan>
    </text>
  </g>
  <g>
    <path style="fill: none; fill-opacity:0; stroke-width: 2; stroke: #000000" d="M 233.502,322.756 A 50.0426,50.0426 0 0 0 273.221,344.256"/>
    <polygon style="fill: #000000" points="280.594,343.968 271.546,350.535 273.195,345.194 269.911,340.669 "/>
    <polygon style="fill: none; fill-opacity:0; stroke-width: 2; stroke: #000000" points="280.594,343.968 271.546,350.535 273.195,345.194 269.911,340.669 "/>
  </g>
  <g>
    <line style="fill: none; fill-opacity:0; stroke-width: 2; stroke: #000000" x1="368.206" y1="343.602" x2="388.65" y2="343.404"/>
    <polygon style="fill: #000000" points="396.15,343.332 386.199,348.428 388.65,343.404 386.102,338.429 "/>
    <polygon style="fill: none; fill-opacity:0; stroke-width: 2; stroke: #000000" points="396.15,343.332 386.199,348.428 388.65,343.404 386.102,338.429 "/>
  </g>
  <g>
    <line style="fill: none; fill-opacity:0; stroke-width: 2; stroke: #000000" x1="441.088" y1="300.608" x2="440.679" y2="278.04"/>
    <polygon style="fill: #000000" points="440.543,270.542 445.723,280.449 440.679,278.04 435.725,280.631 "/>
    <polygon style="fill: none; fill-opacity:0; stroke-width: 2; stroke: #000000" points="440.543,270.542 445.723,280.449 440.679,278.04 435.725,280.631 "/>
  </g>
  <g>
    <line style="fill: none; fill-opacity:0; stroke-width: 2; stroke: #000000" x1="440.502" y1="182.9" x2="441.234" y2="156.288"/>
    <polygon style="fill: #000000" points="441.44,148.791 446.164,158.925 441.234,156.288 436.167,158.65 "/>
    <polygon style="fill: none; fill-opacity:0; stroke-width: 2; stroke: #000000" points="441.44,148.791 446.164,158.925 441.234,156.288 436.167,158.65 "/>
  </g>
  <g>
    <line style="fill: none; fill-opacity:0; stroke-width: 2; stroke: #000000" x1="441.502" y1="61.15" x2="441.502" y2="37.2919"/>
    <polygon style="fill: #000000" points="441.502,29.7919 446.502,39.7919 441.502,37.2919 436.502,39.7919 "/>
    <polygon style="fill: none; fill-opacity:0; stroke-width: 2; stroke: #000000" points="441.502,29.7919 446.502,39.7919 441.502,37.2919 436.502,39.7919 "/>
  </g>
  <g>
    <line style="fill: none; fill-opacity:0; stroke-width: 2; stroke: #000000" x1="484.206" y1="-15.1471" x2="510.064" y2="-15.1471"/>
    <polygon style="fill: #000000" points="517.564,-15.1471 507.564,-10.1471 510.064,-15.1471 507.564,-20.1471 "/>
    <polygon style="fill: none; fill-opacity:0; stroke-width: 2; stroke: #000000" points="517.564,-15.1471 507.564,-10.1471 510.064,-15.1471 507.564,-20.1471 "/>
  </g>
  <text font-size="16.9333" style="fill: #000000;text-anchor:start;font-family:sans-serif;font-style:normal;font-weight:normal" x="219.8" y="351.9">
    <tspan x="219.8" y="351.9">1.0</tspan>
  </text>
  <text font-size="16.9333" style="fill: #000000;text-anchor:start;font-family:sans-serif;font-style:normal;font-weight:normal" x="368.6" y="362.8">
    <tspan x="368.6" y="362.8">1.0</tspan>
  </text>
  <text font-size="16.9333" style="fill: #000000;text-anchor:start;font-family:sans-serif;font-style:normal;font-weight:normal" x="449.4" y="292.7">
    <tspan x="449.4" y="292.7">1.0</tspan>
  </text>
  <text font-size="16.9333" style="fill: #000000;text-anchor:start;font-family:sans-serif;font-style:normal;font-weight:normal" x="450.2" y="173.6">
    <tspan x="450.2" y="173.6">1.0</tspan>
  </text>
  <text font-size="16.9333" style="fill: #000000;text-anchor:start;font-family:sans-serif;font-style:normal;font-weight:normal" x="454" y="53.5">
    <tspan x="454" y="53.5">1.0</tspan>
  </text>
  <text font-size="16.9333" style="fill: #000000;text-anchor:start;font-family:sans-serif;font-style:normal;font-weight:normal" x="486.8" y="-20.6">
    <tspan x="486.8" y="-20.6">1.0</tspan>
  </text>
  <text font-size="16.9333" style="fill: #000000;text-anchor:start;font-family:sans-serif;font-style:normal;font-weight:normal" x="672.6" y="-22.7">
    <tspan x="672.6" y="-22.7">0.01</tspan>
  </text>
  <g>
    <ellipse style="fill: #e2dae2" cx="798.767" cy="-21.4971" rx="43.2529" ry="43.2529"/>
    <ellipse style="fill: none; fill-opacity:0; stroke-width: 2; stroke: #000000" cx="798.767" cy="-21.4971" rx="43.2529" ry="43.2529"/>
    <text font-size="19.7556" style="fill: #000000;text-anchor:middle;font-family:sans-serif;font-style:normal;font-weight:normal" x="798.767" y="-15.3235">
      <tspan x="798.767" y="-15.3235">TIA1-S</tspan>
    </text>
  </g>
  <line style="fill: none; fill-opacity:0; stroke-width: 2; stroke: #000000" x1="865.19" y1="37.9076" x2="864.484" y2="111.94"/>
  <text font-size="16.9333" style="fill: #000000;text-anchor:start;font-family:sans-serif;font-style:normal;font-weight:normal" x="871.432" y="48.1">
    <tspan x="871.432" y="48.1">A = 0.06</tspan>
    <tspan x="871.432" y="69.2667">C = 0.06</tspan>
    <tspan x="871.432" y="90.4333">G = 0.06</tspan>
    <tspan x="871.432" y="111.6">T = 0.82</tspan>
  </text>
  <g>
    <path style="fill: none; fill-opacity:0; stroke-width: 2; stroke: #000000" d="M 798.767,21.7559 A 45.0412,45.0412 0 0 0 856.19,79.0243"/>
    <polygon style="fill: #000000" points="862.93,76.091 857.011,85.5759 856.533,80.0062 851.79,77.0467 "/>
    <polygon style="fill: none; fill-opacity:0; stroke-width: 2; stroke: #000000" points="862.93,76.091 857.011,85.5759 856.533,80.0062 851.79,77.0467 "/>
  </g>
  <g>
    <path style="fill: none; fill-opacity:0; stroke-width: 2; stroke: #000000" d="M 768.178,9.0914 A 120.856,120.856 0 0 0 695.921,125.182"/>
    <polygon style="fill: #000000" points="696.464,132.641 690.257,123.342 695.53,125.199 700.179,122.095 "/>
    <polygon style="fill: none; fill-opacity:0; stroke-width: 2; stroke: #000000" points="696.464,132.641 690.257,123.342 695.53,125.199 700.179,122.095 "/>
  </g>
  <text font-size="16.9333" style="fill: #000000;text-anchor:start;font-family:sans-serif;font-style:normal;font-weight:normal" x="707.802" y="31.1">
    <tspan x="707.802" y="31.1">0.3</tspan>
  </text>
  <g>
    <ellipse style="fill: #cae8f2" cx="233.503" cy="280.053" rx="42.7029" ry="42.7029"/>
    <ellipse style="fill: none; fill-opacity:0; stroke-width: 2; stroke: #000000" cx="233.503" cy="280.053" rx="42.7029" ry="42.7029"/>
    <text font-size="19.7556" style="fill: #000000;text-anchor:middle;font-family:sans-serif;font-style:normal;font-weight:normal" x="233.503" y="286.227">
      <tspan x="233.503" y="286.227">3 bef</tspan>
    </text>
  </g>
  <g>
    <line style="fill: none; fill-opacity:0; stroke-width: 2; stroke: #000000" x1="231.61" y1="208.462" x2="232.866" y2="227.635"/>
    <polygon style="fill: #000000" points="233.356,235.119 227.713,225.467 232.866,227.635 237.692,224.813 "/>
    <polygon style="fill: none; fill-opacity:0; stroke-width: 2; stroke: #000000" points="233.356,235.119 227.713,225.467 232.866,227.635 237.692,224.813 "/>
  </g>
  <text font-size="16.9333" style="fill: #000000;text-anchor:start;font-family:sans-serif;font-style:normal;font-weight:normal" x="197.8" y="230.85">
    <tspan x="197.8" y="230.85">1.0</tspan>
  </text>
  <g>
    <ellipse style="fill: #def5fc" cx="644.503" cy="58.0529" rx="42.7029" ry="42.7029"/>
    <ellipse style="fill: none; fill-opacity:0; stroke-width: 2; stroke: #000000" cx="644.503" cy="58.0529" rx="42.7029" ry="42.7029"/>
    <text font-size="19.7556" style="fill: #000000;text-anchor:middle;font-family:sans-serif;font-style:normal;font-weight:normal" x="644.503" y="64.2265">
      <tspan x="644.503" y="64.2265">4 aft</tspan>
    </text>
  </g>
  <g>
    <path style="fill: none; fill-opacity:0; stroke-width: 2; stroke: #000000" d="M 643.161,6.04284 A 31.2974,31.2974 0 0 0 605.206,-15.1471"/>
    <polygon style="fill: #000000" points="644.519,13.114 639.596,3.07605 644.576,5.61422 649.595,3.15252 "/>
    <polygon style="fill: none; fill-opacity:0; stroke-width: 2; stroke: #000000" points="644.519,13.114 639.596,3.07605 644.576,5.61422 649.595,3.15252 "/>
  </g>
  <text font-size="16.9333" style="fill: #000000;text-anchor:start;font-family:sans-serif;font-style:normal;font-weight:normal" x="623.8" y="-13.9">
    <tspan x="623.8" y="-13.9">1.0</tspan>
  </text>
  <g>
    <path style="fill: none; fill-opacity:0; stroke-width: 2; stroke: #000000" d="M 746.658,-25.2633 A 54.9629,54.9629 0 0 0 674.702,27.8534"/>
    <polygon style="fill: #000000" points="753.541,-22.5489 742.364,-22.8408 746.922,-26.077 747.068,-31.6653 "/>
    <polygon style="fill: none; fill-opacity:0; stroke-width: 2; stroke: #000000" points="753.541,-22.5489 742.364,-22.8408 746.922,-26.077 747.068,-31.6653 "/>
  </g>
  <g>
    <path style="fill: none; fill-opacity:0; stroke-width: 2; stroke: #000000" d="M 614.304,88.2524 A 39.9311,39.9311 0 0 0 611.325,164.223"/>
    <polygon style="fill: #000000" points="618.378,166.153 607.885,170.013 610.924,165.321 608.994,160.075 "/>
    <polygon style="fill: none; fill-opacity:0; stroke-width: 2; stroke: #000000" points="618.378,166.153 607.885,170.013 610.924,165.321 608.994,160.075 "/>
  </g>
  <text font-size="16.9333" style="fill: #000000;text-anchor:start;font-family:sans-serif;font-style:normal;font-weight:normal" x="545.8" y="140.1">
    <tspan x="545.8" y="140.1">0.99</tspan>
  </text>
  <g>
    <path style="fill: none; fill-opacity:0; stroke-width: 2; stroke: #000000" d="M 696.743,134.859 A 120.856,120.856 0 0 0 769.001,18.769"/>
    <polygon style="fill: #000000" points="768.457,11.31 774.664,20.609 769.392,18.7516 764.742,21.8552 "/>
    <polygon style="fill: none; fill-opacity:0; stroke-width: 2; stroke: #000000" points="768.457,11.31 774.664,20.609 769.392,18.7516 764.742,21.8552 "/>
  </g>
  <g>
    <path style="fill: none; fill-opacity:0; stroke-width: 2; stroke: #000000" d="M 829.355,-52.0855 A 27.0434,27.0434 0 1 0 795.607,-73.4955"/>
    <polygon style="fill: #000000" points="797.657,-66.691 788.352,-72.8891 793.933,-73.2014 797.032,-77.8539 "/>
    <polygon style="fill: none; fill-opacity:0; stroke-width: 2; stroke: #000000" points="797.657,-66.691 788.352,-72.8891 793.933,-73.2014 797.032,-77.8539 "/>
  </g>
  <text font-size="16.9333" style="fill: #000000;text-anchor:start;font-family:sans-serif;font-style:normal;font-weight:normal" x="855.8" y="-69.9">
    <tspan x="855.8" y="-69.9">0.7</tspan>
  </text>
  <text font-size="16.9333" style="fill: #000000;text-anchor:start;font-family:sans-serif;font-style:normal;font-weight:normal" x="749.8" y="108.1">
    <tspan x="749.8" y="108.1">0.01</tspan>
  </text>
</svg>
