<?xml version="1.0" encoding="UTF-8" standalone="no"?>
<!DOCTYPE svg PUBLIC "-//W3C//DTD SVG 1.0//EN" "http://www.w3.org/TR/2001/PR-SVG-20010719/DTD/svg10.dtd">
<svg width="49cm" height="28cm" viewBox="31 -166 979 553" xmlns="http://www.w3.org/2000/svg" xmlns:xlink="http://www.w3.org/1999/xlink">
  <g>
    <ellipse style="fill: #ffffff" cx="98.7356" cy="164.368" rx="33.3678" ry="33.3678"/>
    <ellipse style="fill: none; fill-opacity:0; stroke-width: 2; stroke: #000000" cx="98.7356" cy="164.368" rx="33.3678" ry="33.3678"/>
    <polyline style="fill: none; fill-opacity:0; stroke-width: 2; stroke: #000000" points="32,164.368 65.3678,164.368 "/>
    <polygon style="fill: #000000" points="56.0248,160.364 65.3678,164.368 56.0248,167.705 "/>
    <polygon style="fill: none; fill-opacity:0; stroke-width: 2; stroke: #000000" points="56.0248,160.364 65.3678,164.368 56.0248,167.705 "/>
    <text font-size="16.9333" style="fill: #000000;text-anchor:middle;font-family:sans-serif;font-style:normal;font-weight:normal" x="98.7356" y="169.659">
      <tspan x="98.7356" y="169.659">START</tspan>
    </text>
  </g>
  <g>
    <ellipse style="fill: #0eb00e" cx="231.61" cy="164.731" rx="43.7315" ry="43.7315"/>
    <ellipse style="fill: none; fill-opacity:0; stroke-width: 2; stroke: #000000" cx="231.61" cy="164.731" rx="43.7315" ry="43.7315"/>
    <text font-size="19.7556" style="fill: #000000;text-anchor:middle;font-family:sans-serif;font-style:normal;font-weight:normal" x="231.61" y="170.905">
      <tspan x="231.61" y="170.905">EXON</tspan>
    </text>
  </g>
  <g>
    <ellipse style="fill: #1e90ff" cx="441.089" cy="343.311" rx="42.7029" ry="42.7029"/>
    <ellipse style="fill: none; fill-opacity:0; stroke-width: 2; stroke: #000000" cx="441.089" cy="343.311" rx="42.7029" ry="42.7029"/>
    <text font-size="19.7556" style="fill: #000000;text-anchor:middle;font-family:sans-serif;font-style:normal;font-weight:normal" x="441.089" y="349.485">
      <tspan x="441.089" y="349.485">1 bef</tspan>
    </text>
  </g>
  <g>
    <ellipse style="fill: #df2828" cx="662.201" cy="196.401" rx="44.6012" ry="44.6012"/>
    <ellipse style="fill: none; fill-opacity:0; stroke-width: 2; stroke: #000000" cx="662.201" cy="196.401" rx="44.6012" ry="44.6012"/>
    <text font-size="19.7556" style="fill: #000000;text-anchor:middle;font-family:sans-serif;font-style:normal;font-weight:normal" x="662.201" y="202.575">
      <tspan x="662.201" y="202.575">INTRON</tspan>
    </text>
  </g>
  <g>
    <ellipse style="fill: #ffffff" cx="662.406" cy="346.285" rx="32.5565" ry="32.5565"/>
    <ellipse style="fill: none; fill-opacity:0; stroke-width: 2; stroke: #000000" cx="662.406" cy="346.285" rx="32.5565" ry="32.5565"/>
    <text font-size="16.9333" style="fill: #000000;text-anchor:middle;font-family:sans-serif;font-style:normal;font-weight:normal" x="662.406" y="351.577">
      <tspan x="662.406" y="351.577">END</tspan>
    </text>
  </g>
  <g>
    <line style="fill: none; fill-opacity:0; stroke-width: 2; stroke: #000000" x1="132.103" y1="164.368" x2="178.143" y2="164.668"/>
    <polygon style="fill: #000000" points="185.643,164.717 175.61,169.652 178.143,164.668 175.675,159.652 "/>
    <polygon style="fill: none; fill-opacity:0; stroke-width: 2; stroke: #000000" points="185.643,164.717 175.61,169.652 178.143,164.668 175.675,159.652 "/>
  </g>
  <text font-size="12.8" style="fill: #000000;text-anchor:start;font-family:sans-serif;font-style:normal;font-weight:normal" x="231.61" y="164.731">
    <tspan x="231.61" y="164.731"></tspan>
  </text>
  <g>
    <path style="fill: none; fill-opacity:0; stroke-width: 2; stroke: #000000" d="M 271.031,199.904 A 37.2506,37.2506 0 1 0 262.536,133.805"/>
    <polygon style="fill: #000000" points="264.392,196.905 275.482,198.328 270.619,201.085 269.908,206.63 "/>
    <polygon style="fill: none; fill-opacity:0; stroke-width: 2; stroke: #000000" points="264.392,196.905 275.482,198.328 270.619,201.085 269.908,206.63 "/>
  </g>
  <g>
    <path style="fill: none; fill-opacity:0; stroke-width: 2; stroke: #000000" d="M 609.399,191.689 A 34.42,34.42 0 1 0 630.659,227.943"/>
    <polygon style="fill: #000000" points="615.833,195.031 604.866,192.857 609.905,190.437 610.992,184.953 "/>
    <polygon style="fill: none; fill-opacity:0; stroke-width: 2; stroke: #000000" points="615.833,195.031 604.866,192.857 609.905,190.437 610.992,184.953 "/>
  </g>
  <text font-size="16.9333" style="fill: #000000;text-anchor:start;font-family:sans-serif;font-style:normal;font-weight:normal" x="144.773" y="161.525">
    <tspan x="144.773" y="161.525">1.0</tspan>
  </text>
  <text font-size="12.8" style="fill: #000000;text-anchor:start;font-family:sans-serif;font-style:normal;font-weight:normal" x="293.336" y="146.575">
    <tspan x="293.336" y="146.575"></tspan>
  </text>
  <text font-size="16.9333" style="fill: #000000;text-anchor:start;font-family:sans-serif;font-style:normal;font-weight:normal" x="744.846" y="332.062">
    <tspan x="744.846" y="332.062">0.1</tspan>
  </text>
  <text font-size="16.9333" style="fill: #000000;text-anchor:start;font-family:sans-serif;font-style:normal;font-weight:normal" x="323.858" y="167.228">
    <tspan x="323.858" y="167.228">0.9</tspan>
  </text>
  <text font-size="16.9333" style="fill: #000000;text-anchor:start;font-family:sans-serif;font-style:normal;font-weight:normal" x="555.206" y="134.592">
    <tspan x="555.206" y="134.592">0.9</tspan>
  </text>
  <line style="fill: none; fill-opacity:0; stroke-width: 2; stroke: #000000" x1="199.706" y1="34.7724" x2="199" y2="108.805"/>
  <text font-size="16.9333" style="fill: #000000;text-anchor:start;font-family:sans-serif;font-style:normal;font-weight:normal" x="206.948" y="45.9648">
    <tspan x="206.948" y="45.9648">A = 0.25</tspan>
    <tspan x="206.948" y="67.1315">C = 0.25</tspan>
    <tspan x="206.948" y="88.2981">G = 0.25</tspan>
    <tspan x="206.948" y="109.465">T = 0.25</tspan>
  </text>
  <g>
    <path style="fill: none; fill-opacity:0; stroke-width: 2; stroke: #000000" d="M 193.08,79.0428 A 48.1138,48.1138 0 0 0 194.837,136.759"/>
    <polygon style="fill: #000000" points="197.729,73.3256 193.904,83.8313 192.282,78.4816 187.029,76.5691 "/>
    <polygon style="fill: none; fill-opacity:0; stroke-width: 2; stroke: #000000" points="197.729,73.3256 193.904,83.8313 192.282,78.4816 187.029,76.5691 "/>
  </g>
  <line style="fill: none; fill-opacity:0; stroke-width: 2; stroke: #000000" x1="899" y1="185.804" x2="900.04" y2="260.544"/>
  <g>
    <path style="fill: none; fill-opacity:0; stroke-width: 2; stroke: #000000" d="M 892.248,216.784 A 78.6127,78.6127 0 0 0 840.053,200.409"/>
    <polygon style="fill: #000000" points="897.934,221.597 887.318,218.092 892.616,216.309 894.369,211.001 "/>
    <polygon style="fill: none; fill-opacity:0; stroke-width: 2; stroke: #000000" points="897.934,221.597 887.318,218.092 892.616,216.309 894.369,211.001 "/>
  </g>
  <text font-size="16.9333" style="fill: #000000;text-anchor:start;font-family:sans-serif;font-style:normal;font-weight:normal" x="906.8" y="197.9">
    <tspan x="906.8" y="197.9">A = 0.25</tspan>
    <tspan x="906.8" y="219.067">C = 0.25</tspan>
    <tspan x="906.8" y="240.233">G = 0.25</tspan>
    <tspan x="906.8" y="261.4">T = 0.25</tspan>
  </text>
  <g>
    <ellipse style="fill: #7ebdd1" cx="325.503" cy="343.603" rx="42.7029" ry="42.7029"/>
    <ellipse style="fill: none; fill-opacity:0; stroke-width: 2; stroke: #000000" cx="325.503" cy="343.603" rx="42.7029" ry="42.7029"/>
    <text font-size="19.7556" style="fill: #000000;text-anchor:middle;font-family:sans-serif;font-style:normal;font-weight:normal" x="325.503" y="349.777">
      <tspan x="325.503" y="349.777">2 bef</tspan>
    </text>
  </g>
  <g>
    <ellipse style="fill: #20657b" cx="440.503" cy="225.603" rx="42.7029" ry="42.7029"/>
    <ellipse style="fill: none; fill-opacity:0; stroke-width: 2; stroke: #000000" cx="440.503" cy="225.603" rx="42.7029" ry="42.7029"/>
    <text font-size="19.7556" style="fill: #000000;text-anchor:middle;font-family:sans-serif;font-style:normal;font-weight:normal" x="440.503" y="231.777">
      <tspan x="440.503" y="231.777">5'SS</tspan>
    </text>
  </g>
  <g>
    <ellipse style="fill: #1e90ff" cx="441.503" cy="103.853" rx="42.7029" ry="42.7029"/>
    <ellipse style="fill: none; fill-opacity:0; stroke-width: 2; stroke: #000000" cx="441.503" cy="103.853" rx="42.7029" ry="42.7029"/>
    <text font-size="19.7556" style="fill: #000000;text-anchor:middle;font-family:sans-serif;font-style:normal;font-weight:normal" x="441.503" y="110.027">
      <tspan x="441.503" y="110.027">1 aft</tspan>
    </text>
  </g>
  <g>
    <ellipse style="fill: #7ebdd1" cx="441.503" cy="-15.1471" rx="42.7029" ry="42.7029"/>
    <ellipse style="fill: none; fill-opacity:0; stroke-width: 2; stroke: #000000" cx="441.503" cy="-15.1471" rx="42.7029" ry="42.7029"/>
    <text font-size="19.7556" style="fill: #000000;text-anchor:middle;font-family:sans-serif;font-style:normal;font-weight:normal" x="441.503" y="-8.97346">
      <tspan x="441.503" y="-8.97346">2 aft</tspan>
    </text>
  </g>
  <g>
    <ellipse style="fill: #cae8f2" cx="562.503" cy="-15.1471" rx="42.7029" ry="42.7029"/>
    <ellipse style="fill: none; fill-opacity:0; stroke-width: 2; stroke: #000000" cx="562.503" cy="-15.1471" rx="42.7029" ry="42.7029"/>
    <text font-size="19.7556" style="fill: #000000;text-anchor:middle;font-family:sans-serif;font-style:normal;font-weight:normal" x="562.503" y="-8.97346">
      <tspan x="562.503" y="-8.97346">3 aft</tspan>
    </text>
  </g>
  <g>
    <path style="fill: none; fill-opacity:0; stroke-width: 2; stroke: #000000" d="M 233.502,322.756 A 50.0426,50.0426 0 0 0 273.221,344.256"/>
    <polygon style="fill: #000000" points="280.594,343.968 271.546,350.535 273.195,345.194 269.911,340.669 "/>
    <polygon style="fill: none; fill-opacity:0; stroke-width: 2; stroke: #000000" points="280.594,343.968 271.546,350.535 273.195,345.194 269.911,340.669 "/>
  </g>
  <g>
    <line style="fill: none; fill-opacity:0; stroke-width: 2; stroke: #000000" x1="368.206" y1="343.602" x2="388.65" y2="343.404"/>
    <polygon style="fill: #000000" points="396.15,343.332 386.199,348.428 388.65,343.404 386.102,338.429 "/>
    <polygon style="fill: none; fill-opacity:0; stroke-width: 2; stroke: #000000" points="396.15,343.332 386.199,348.428 388.65,343.404 386.102,338.429 "/>
  </g>
  <g>
    <line style="fill: none; fill-opacity:0; stroke-width: 2; stroke: #000000" x1="441.088" y1="300.608" x2="440.679" y2="278.04"/>
    <polygon style="fill: #000000" points="440.543,270.542 445.723,280.449 440.679,278.04 435.725,280.631 "/>
    <polygon style="fill: none; fill-opacity:0; stroke-width: 2; stroke: #000000" points="440.543,270.542 445.723,280.449 440.679,278.04 435.725,280.631 "/>
  </g>
  <g>
    <line style="fill: none; fill-opacity:0; stroke-width: 2; stroke: #000000" x1="440.502" y1="182.9" x2="441.234" y2="156.288"/>
    <polygon style="fill: #000000" points="441.44,148.791 446.164,158.925 441.234,156.288 436.167,158.65 "/>
    <polygon style="fill: none; fill-opacity:0; stroke-width: 2; stroke: #000000" points="441.44,148.791 446.164,158.925 441.234,156.288 436.167,158.65 "/>
  </g>
  <g>
    <line style="fill: none; fill-opacity:0; stroke-width: 2; stroke: #000000" x1="441.502" y1="61.15" x2="441.502" y2="37.2919"/>
    <polygon style="fill: #000000" points="441.502,29.7919 446.502,39.7919 441.502,37.2919 436.502,39.7919 "/>
    <polygon style="fill: none; fill-opacity:0; stroke-width: 2; stroke: #000000" points="441.502,29.7919 446.502,39.7919 441.502,37.2919 436.502,39.7919 "/>
  </g>
  <g>
    <line style="fill: none; fill-opacity:0; stroke-width: 2; stroke: #000000" x1="484.206" y1="-15.1471" x2="510.064" y2="-15.1471"/>
    <polygon style="fill: #000000" points="517.564,-15.1471 507.564,-10.1471 510.064,-15.1471 507.564,-20.1471 "/>
    <polygon style="fill: none; fill-opacity:0; stroke-width: 2; stroke: #000000" points="517.564,-15.1471 507.564,-10.1471 510.064,-15.1471 507.564,-20.1471 "/>
  </g>
  <text font-size="16.9333" style="fill: #000000;text-anchor:start;font-family:sans-serif;font-style:normal;font-weight:normal" x="219.8" y="351.9">
    <tspan x="219.8" y="351.9">1.0</tspan>
  </text>
  <text font-size="16.9333" style="fill: #000000;text-anchor:start;font-family:sans-serif;font-style:normal;font-weight:normal" x="368.6" y="362.8">
    <tspan x="368.6" y="362.8">1.0</tspan>
  </text>
  <text font-size="16.9333" style="fill: #000000;text-anchor:start;font-family:sans-serif;font-style:normal;font-weight:normal" x="449.4" y="292.7">
    <tspan x="449.4" y="292.7">1.0</tspan>
  </text>
  <text font-size="16.9333" style="fill: #000000;text-anchor:start;font-family:sans-serif;font-style:normal;font-weight:normal" x="450.2" y="173.6">
    <tspan x="450.2" y="173.6">1.0</tspan>
  </text>
  <text font-size="16.9333" style="fill: #000000;text-anchor:start;font-family:sans-serif;font-style:normal;font-weight:normal" x="454" y="53.5">
    <tspan x="454" y="53.5">1.0</tspan>
  </text>
  <text font-size="16.9333" style="fill: #000000;text-anchor:start;font-family:sans-serif;font-style:normal;font-weight:normal" x="486.8" y="-20.6">
    <tspan x="486.8" y="-20.6">1.0</tspan>
  </text>
  <text font-size="16.9333" style="fill: #000000;text-anchor:start;font-family:sans-serif;font-style:normal;font-weight:normal" x="697.6" y="47.3">
    <tspan x="697.6" y="47.3">0.01</tspan>
  </text>
  <g>
    <ellipse style="fill: #e2dae2" cx="785.767" cy="-22.4971" rx="43.2529" ry="43.2529"/>
    <ellipse style="fill: none; fill-opacity:0; stroke-width: 2; stroke: #000000" cx="785.767" cy="-22.4971" rx="43.2529" ry="43.2529"/>
    <text font-size="19.7556" style="fill: #000000;text-anchor:middle;font-family:sans-serif;font-style:normal;font-weight:normal" x="785.767" y="-16.3235">
      <tspan x="785.767" y="-16.3235">TIA1-S</tspan>
    </text>
  </g>
  <line style="fill: none; fill-opacity:0; stroke-width: 2; stroke: #000000" x1="671.19" y1="-161.092" x2="670.484" y2="-87.0602"/>
  <text font-size="16.9333" style="fill: #000000;text-anchor:start;font-family:sans-serif;font-style:normal;font-weight:normal" x="678.432" y="-149.9">
    <tspan x="678.432" y="-149.9">A = 0.06</tspan>
    <tspan x="678.432" y="-128.733">C = 0.06</tspan>
    <tspan x="678.432" y="-107.567">G = 0.06</tspan>
    <tspan x="678.432" y="-86.4">T = 0.82</tspan>
  </text>
  <g>
    <path style="fill: none; fill-opacity:0; stroke-width: 2; stroke: #000000" d="M 665.216,-116.229 A 64.3147,64.3147 0 0 0 742.514,-22.497"/>
    <polygon style="fill: #000000" points="669.403,-122.361 666.82,-111.483 664.59,-116.609 659.151,-117.901 "/>
    <polygon style="fill: none; fill-opacity:0; stroke-width: 2; stroke: #000000" points="669.403,-122.361 666.82,-111.483 664.59,-116.609 659.151,-117.901 "/>
  </g>
  <g>
    <ellipse style="fill: #deb4de" cx="875.055" cy="-95.3971" rx="43.2529" ry="43.2529"/>
    <ellipse style="fill: none; fill-opacity:0; stroke-width: 2; stroke: #000000" cx="875.055" cy="-95.3971" rx="43.2529" ry="43.2529"/>
    <text font-size="19.7556" style="fill: #000000;text-anchor:middle;font-family:sans-serif;font-style:normal;font-weight:normal" x="875.055" y="-89.2235">
      <tspan x="875.055" y="-89.2235">TIA1-X</tspan>
    </text>
  </g>
  <g>
    <ellipse style="fill: #be7dbe" cx="965.855" cy="-28.2971" rx="43.2529" ry="43.2529"/>
    <ellipse style="fill: none; fill-opacity:0; stroke-width: 2; stroke: #000000" cx="965.855" cy="-28.2971" rx="43.2529" ry="43.2529"/>
    <text font-size="19.7556" style="fill: #000000;text-anchor:middle;font-family:sans-serif;font-style:normal;font-weight:normal" x="965.855" y="-22.1235">
      <tspan x="965.855" y="-22.1235">TIA1-Y</tspan>
    </text>
  </g>
  <g>
    <ellipse style="fill: #b54eb5" cx="878.655" cy="49.8029" rx="43.2529" ry="43.2529"/>
    <ellipse style="fill: none; fill-opacity:0; stroke-width: 2; stroke: #000000" cx="878.655" cy="49.8029" rx="43.2529" ry="43.2529"/>
    <text font-size="19.7556" style="fill: #000000;text-anchor:middle;font-family:sans-serif;font-style:normal;font-weight:normal" x="878.655" y="55.9765">
      <tspan x="878.655" y="55.9765">TIA1-Z</tspan>
    </text>
  </g>
  <g>
    <path style="fill: none; fill-opacity:0; stroke-width: 2; stroke: #000000" d="M 829.079,-104.373 A 30.171,30.171 0 1 0 785.766,-65.75"/>
    <polygon style="fill: #000000" points="831.493,-97.6117 825.161,-106.826 830.458,-105.04 835.065,-108.206 "/>
    <polygon style="fill: none; fill-opacity:0; stroke-width: 2; stroke: #000000" points="831.493,-97.6117 825.161,-106.826 830.458,-105.04 835.065,-108.206 "/>
  </g>
  <g>
    <path style="fill: none; fill-opacity:0; stroke-width: 2; stroke: #000000" d="M 971.05,-79.2877 A 27.796,27.796 0 1 0 918.308,-95.397"/>
    <polygon style="fill: #000000" points="967.394,-73.171 970.658,-83.8645 972.56,-78.6081 977.907,-76.9763 "/>
    <polygon style="fill: none; fill-opacity:0; stroke-width: 2; stroke: #000000" points="967.394,-73.171 970.658,-83.8645 972.56,-78.6081 977.907,-76.9763 "/>
  </g>
  <g>
    <path style="fill: none; fill-opacity:0; stroke-width: 2; stroke: #000000" d="M 925.898,58.294 A 30.278,30.278 0 1 0 965.854,14.9559"/>
    <polygon style="fill: #000000" points="922.534,51.9496 930.134,60.1498 924.634,59.1497 920.534,62.9496 "/>
    <polygon style="fill: none; fill-opacity:0; stroke-width: 2; stroke: #000000" points="922.534,51.9496 930.134,60.1498 924.634,59.1497 920.534,62.9496 "/>
  </g>
  <g>
    <path style="fill: none; fill-opacity:0; stroke-width: 2; stroke: #000000" d="M 874.923,101.633 A 29.0512,29.0512 0 1 0 909.244,80.3914"/>
    <polygon style="fill: #000000" points="877.444,94.9359 876.235,106.051 873.384,101.242 867.826,100.638 "/>
    <polygon style="fill: none; fill-opacity:0; stroke-width: 2; stroke: #000000" points="877.444,94.9359 876.235,106.051 873.384,101.242 867.826,100.638 "/>
  </g>
  <text font-size="16.9333" style="fill: #000000;text-anchor:start;font-family:sans-serif;font-style:normal;font-weight:normal" x="892.802" y="156.1">
    <tspan x="892.802" y="156.1">0.2</tspan>
  </text>
  <text font-size="16.9333" style="fill: #000000;text-anchor:start;font-family:sans-serif;font-style:normal;font-weight:normal" x="781.802" y="-123.9">
    <tspan x="781.802" y="-123.9">1.0</tspan>
  </text>
  <text font-size="16.9333" style="fill: #000000;text-anchor:start;font-family:sans-serif;font-style:normal;font-weight:normal" x="955.602" y="-117.8">
    <tspan x="955.602" y="-117.8">1.0</tspan>
  </text>
  <text font-size="16.9333" style="fill: #000000;text-anchor:start;font-family:sans-serif;font-style:normal;font-weight:normal" x="973.402" y="79.3">
    <tspan x="973.402" y="79.3">1.0</tspan>
  </text>
  <g>
    <ellipse style="fill: #cae8f2" cx="233.503" cy="280.053" rx="42.7029" ry="42.7029"/>
    <ellipse style="fill: none; fill-opacity:0; stroke-width: 2; stroke: #000000" cx="233.503" cy="280.053" rx="42.7029" ry="42.7029"/>
    <text font-size="19.7556" style="fill: #000000;text-anchor:middle;font-family:sans-serif;font-style:normal;font-weight:normal" x="233.503" y="286.227">
      <tspan x="233.503" y="286.227">3 bef</tspan>
    </text>
  </g>
  <g>
    <line style="fill: none; fill-opacity:0; stroke-width: 2; stroke: #000000" x1="231.61" y1="208.462" x2="232.866" y2="227.635"/>
    <polygon style="fill: #000000" points="233.356,235.119 227.713,225.467 232.866,227.635 237.692,224.813 "/>
    <polygon style="fill: none; fill-opacity:0; stroke-width: 2; stroke: #000000" points="233.356,235.119 227.713,225.467 232.866,227.635 237.692,224.813 "/>
  </g>
  <text font-size="16.9333" style="fill: #000000;text-anchor:start;font-family:sans-serif;font-style:normal;font-weight:normal" x="197.8" y="230.85">
    <tspan x="197.8" y="230.85">1.0</tspan>
  </text>
  <g>
    <ellipse style="fill: #def5fc" cx="644.503" cy="58.0529" rx="42.7029" ry="42.7029"/>
    <ellipse style="fill: none; fill-opacity:0; stroke-width: 2; stroke: #000000" cx="644.503" cy="58.0529" rx="42.7029" ry="42.7029"/>
    <text font-size="19.7556" style="fill: #000000;text-anchor:middle;font-family:sans-serif;font-style:normal;font-weight:normal" x="644.503" y="64.2265">
      <tspan x="644.503" y="64.2265">4 aft</tspan>
    </text>
  </g>
  <g>
    <path style="fill: none; fill-opacity:0; stroke-width: 2; stroke: #000000" d="M 643.161,6.04284 A 31.2974,31.2974 0 0 0 605.206,-15.1471"/>
    <polygon style="fill: #000000" points="644.519,13.114 639.596,3.07605 644.576,5.61422 649.595,3.15252 "/>
    <polygon style="fill: none; fill-opacity:0; stroke-width: 2; stroke: #000000" points="644.519,13.114 639.596,3.07605 644.576,5.61422 649.595,3.15252 "/>
  </g>
  <text font-size="16.9333" style="fill: #000000;text-anchor:start;font-family:sans-serif;font-style:normal;font-weight:normal" x="623.8" y="-13.9">
    <tspan x="623.8" y="-13.9">1.0</tspan>
  </text>
  <g>
    <path style="fill: none; fill-opacity:0; stroke-width: 2; stroke: #000000" d="M 687.206,58.053 A 54.4772,54.4772 0 0 0 753.837,17.6193"/>
    <polygon style="fill: #000000" points="755.063,10.3245 759.543,20.5682 754.678,17.8146 749.556,20.0544 "/>
    <polygon style="fill: none; fill-opacity:0; stroke-width: 2; stroke: #000000" points="755.063,10.3245 759.543,20.5682 754.678,17.8146 749.556,20.0544 "/>
  </g>
  <g>
    <path style="fill: none; fill-opacity:0; stroke-width: 2; stroke: #000000" d="M 614.303,88.2524 A 39.8895,39.8895 0 0 0 621.18,163.908"/>
    <polygon style="fill: #000000" points="628.424,164.903 618.524,170.099 620.925,165.051 618.327,160.101 "/>
    <polygon style="fill: none; fill-opacity:0; stroke-width: 2; stroke: #000000" points="628.424,164.903 618.524,170.099 620.925,165.051 618.327,160.101 "/>
  </g>
  <text font-size="16.9333" style="fill: #000000;text-anchor:start;font-family:sans-serif;font-style:normal;font-weight:normal" x="511.8" y="230.1">
    <tspan x="511.8" y="230.1">0.899</tspan>
  </text>
  <g>
    <path style="fill: none; fill-opacity:0; stroke-width: 2; stroke: #000000" d="M 693.743,164.859 A 192.714,192.714 0 0 0 784.468,30.3955"/>
    <polygon style="fill: #000000" points="785.524,22.9787 789.41,33.4621 784.711,30.4345 779.469,32.3773 "/>
    <polygon style="fill: none; fill-opacity:0; stroke-width: 2; stroke: #000000" points="785.524,22.9787 789.41,33.4621 784.711,30.4345 779.469,32.3773 "/>
  </g>
  <text font-size="16.9333" style="fill: #000000;text-anchor:start;font-family:sans-serif;font-style:normal;font-weight:normal" x="674.61" y="143.1">
    <tspan x="674.61" y="143.1">0.001</tspan>
  </text>
  <g>
    <ellipse style="fill: #df2828" cx="808.511" cy="231.951" rx="44.6012" ry="44.6012"/>
    <ellipse style="fill: none; fill-opacity:0; stroke-width: 2; stroke: #000000" cx="808.511" cy="231.951" rx="44.6012" ry="44.6012"/>
    <text font-size="19.7556" style="fill: #000000;text-anchor:middle;font-family:sans-serif;font-style:normal;font-weight:normal" x="808.511" y="238.125">
      <tspan x="808.511" y="238.125">Post-In</tspan>
    </text>
  </g>
  <g>
    <path style="fill: none; fill-opacity:0; stroke-width: 2; stroke: #000000" d="M 804.924,285.195 A 29.2148,29.2148 0 1 0 840.053,263.493"/>
    <polygon style="fill: #000000" points="807.334,278.454 806.322,289.588 803.387,284.831 797.819,284.325 "/>
    <polygon style="fill: none; fill-opacity:0; stroke-width: 2; stroke: #000000" points="807.334,278.454 806.322,289.588 803.387,284.831 797.819,284.325 "/>
  </g>
  <text font-size="16.9333" style="fill: #000000;text-anchor:start;font-family:sans-serif;font-style:normal;font-weight:normal" x="853.91" y="330.1">
    <tspan x="853.91" y="330.1">0.9</tspan>
  </text>
  <g>
    <path style="fill: none; fill-opacity:0; stroke-width: 2; stroke: #000000" d="M 704.14,343.102 A 122.422,122.422 0 0 0 776.969,263.493"/>
    <polygon style="fill: #000000" points="697.103,345.637 705.224,337.952 704.281,343.462 708.123,347.523 "/>
    <polygon style="fill: none; fill-opacity:0; stroke-width: 2; stroke: #000000" points="697.103,345.637 705.224,337.952 704.281,343.462 708.123,347.523 "/>
  </g>
  <g>
    <line style="fill: none; fill-opacity:0; stroke-width: 2; stroke: #000000" x1="662.201" y1="241.002" x2="662.379" y2="303.992"/>
    <polygon style="fill: #000000" points="662.4,311.492 657.372,301.506 662.379,303.992 667.372,301.478 "/>
    <polygon style="fill: none; fill-opacity:0; stroke-width: 2; stroke: #000000" points="662.4,311.492 657.372,301.506 662.379,303.992 667.372,301.478 "/>
  </g>
  <text font-size="16.9333" style="fill: #000000;text-anchor:start;font-family:sans-serif;font-style:normal;font-weight:normal" x="631.91" y="288.85">
    <tspan x="631.91" y="288.85">0.1</tspan>
  </text>
  <g>
    <path style="fill: none; fill-opacity:0; stroke-width: 2; stroke: #000000" d="M 848.066,80.3914 A 91.2798,91.2798 0 0 0 805.95,178"/>
    <polygon style="fill: #000000" points="807.807,185.228 799.911,177.312 805.444,178.11 809.402,174.162 "/>
    <polygon style="fill: none; fill-opacity:0; stroke-width: 2; stroke: #000000" points="807.807,185.228 799.911,177.312 805.444,178.11 809.402,174.162 "/>
  </g>
  <text font-size="16.9333" style="fill: #000000;text-anchor:start;font-family:sans-serif;font-style:normal;font-weight:normal" x="779.91" y="141.1">
    <tspan x="779.91" y="141.1">0.1</tspan>
  </text>
</svg>
